<svg xmlns="http://www.w3.org/2000/svg" version="1.1" xmlns:xlink="http://www.w3.org/1999/xlink" width="200" height="200"><svg xmlns="http://www.w3.org/2000/svg" version="1.1" xmlns:xlink="http://www.w3.org/1999/xlink" viewBox="0 0 200 200"><rect width="200" height="200" fill="url('#gradient')"></rect><defs><linearGradient id="SvgjsLinearGradient1001" gradientTransform="rotate(87 0.5 0.5)"><stop offset="0%" stop-color="#dee90b"></stop><stop offset="100%" stop-color="#81e342"></stop></linearGradient></defs><g><g fill="#213951" transform="matrix(1.7984285934370665,0,0,1.7984285934370665,41.07093265031634,109.74740491234417)" stroke="#0e5278" stroke-width="0"><path d="M6.85 0L1.07 0L1.07-14.22L6.18-14.22Q8.93-14.22 10.36-13.21Q11.79-12.21 11.79-10.29L11.79-10.29Q11.79-9.19 11.28-8.41Q10.77-7.63 9.79-7.26L9.79-7.26Q10.90-6.96 11.49-6.16Q12.09-5.36 12.09-4.21L12.09-4.21Q12.09-2.12 10.77-1.07Q9.44-0.02 6.85 0L6.85 0ZM6.90-6.04L4.50-6.04L4.50-2.64L6.75-2.64Q7.68-2.64 8.17-3.06Q8.67-3.49 8.67-4.26L8.67-4.26Q8.67-6.04 6.90-6.04L6.90-6.04ZM4.50-11.57L4.50-8.29L6.29-8.29Q7.41-8.30 7.89-8.70Q8.37-9.10 8.37-9.88L8.37-9.88Q8.37-10.78 7.85-11.18Q7.33-11.57 6.18-11.57L6.18-11.57L4.50-11.57ZM20.21 0L20.12-1.14Q19.07 0.20 17.29 0.20L17.29 0.20Q15.56 0.20 14.66-0.82Q13.77-1.83 13.77-3.72L13.77-3.72L13.77-10.57L17.06-10.57L17.06-3.70Q17.06-2.34 18.38-2.34L18.38-2.34Q19.51-2.34 19.99-3.15L19.99-3.15L19.99-10.57L23.30-10.57L23.30 0L20.21 0ZM24.69-5.36L24.69-5.36Q24.69-7.87 25.77-9.32Q26.86-10.76 28.80-10.76L28.80-10.76Q30.21-10.76 31.18-9.65L31.18-9.65L31.18-15L34.48-15L34.48 0L31.52 0L31.36-1.13Q30.34 0.20 28.78 0.20L28.78 0.20Q26.89 0.20 25.79-1.25Q24.69-2.70 24.69-5.36ZM27.99-5.76L27.98-5.16Q27.98-2.34 29.62-2.34L29.62-2.34Q30.71-2.34 31.18-3.26L31.18-3.26L31.18-7.29Q30.73-8.22 29.64-8.22L29.64-8.22Q28.12-8.22 27.99-5.76L27.99-5.76ZM35.97-5.24L35.97-5.36Q35.97-6.96 36.49-8.19Q37.02-9.42 38.01-10.09Q38.99-10.76 40.30-10.76L40.30-10.76Q41.95-10.76 42.88-9.65L42.88-9.65L43.00-10.57L45.99-10.57L45.99-0.40Q45.99 1.00 45.34 2.03Q44.69 3.06 43.46 3.61Q42.23 4.16 40.61 4.16L40.61 4.16Q39.44 4.16 38.35 3.72Q37.27 3.28 36.69 2.58L36.69 2.58L38.07 0.64Q38.98 1.73 40.49 1.73L40.49 1.73Q42.68 1.73 42.68-0.52L42.68-0.52L42.68-0.85Q41.73 0.20 40.28 0.20L40.28 0.20Q38.35 0.20 37.16-1.28Q35.97-2.76 35.97-5.24L35.97-5.24ZM39.27-5.16L39.27-5.16Q39.27-3.86 39.76-3.10Q40.24-2.34 41.12-2.34L41.12-2.34Q42.19-2.34 42.68-3.06L42.68-3.06L42.68-7.50Q42.20-8.22 41.14-8.22L41.14-8.22Q40.26-8.22 39.77-7.44Q39.27-6.65 39.27-5.16ZM52.97 0.20L52.97 0.20Q50.54 0.20 49.03-1.25Q47.53-2.71 47.53-5.03L47.53-5.03L47.53-5.30Q47.53-6.92 48.13-8.16Q48.73-9.40 49.88-10.08Q51.04-10.76 52.62-10.76L52.62-10.76Q54.84-10.76 56.13-9.38Q57.42-8.00 57.42-5.53L57.42-5.53L57.42-4.25L50.88-4.25Q51.05-3.36 51.65-2.85Q52.25-2.34 53.19-2.34L53.19-2.34Q54.76-2.34 55.63-3.44L55.63-3.44L57.14-1.66Q56.52-0.81 55.40-0.31Q54.27 0.20 52.97 0.20ZM52.60-8.22L52.60-8.22Q51.15-8.22 50.88-6.31L50.88-6.31L54.20-6.31L54.20-6.56Q54.22-7.35 53.80-7.79Q53.38-8.22 52.60-8.22ZM59.29-13.19L62.58-13.19L62.58-10.57L64.32-10.57L64.32-8.28L62.58-8.28L62.58-3.45Q62.58-2.85 62.79-2.62Q63.01-2.38 63.64-2.38L63.64-2.38Q64.13-2.38 64.46-2.44L64.46-2.44L64.46-0.09Q63.57 0.20 62.61 0.20L62.61 0.20Q60.91 0.20 60.10-0.61Q59.29-1.41 59.29-3.04L59.29-3.04L59.29-8.28L57.94-8.28L57.94-10.57L59.29-10.57L59.29-13.19Z"></path></g></g></svg><style>@media (prefers-color-scheme: light) { :root { filter: none; } }
@media (prefers-color-scheme: dark) { :root { filter: none; } }
</style></svg>